<?xml version="1.0" encoding="utf-8"?>
<!-- Svg Vector Icons : http://www.onlinewebfonts.com/icon -->
<!DOCTYPE svg PUBLIC "-//W3C//DTD SVG 1.1//EN" "http://www.w3.org/Graphics/SVG/1.1/DTD/svg11.dtd">
<svg version="1.1" xmlns="http://www.w3.org/2000/svg" xmlns:xlink="http://www.w3.org/1999/xlink" x="0px" y="0px" viewBox="0 0 1000 1000" enable-background="new 0 0 1000 1000" xml:space="preserve">
<metadata> Svg Vector Icons : http://www.onlinewebfonts.com/icon </metadata>
<g><path d="M956.3,21H43.5C24.9,21,10,36.1,10,54.6v649.5c0,18.5,15,33.6,33.5,33.6h134.1v207.9c0,13.8,8.5,26.2,21.4,31.1c3.9,1.7,8.1,2.3,12.2,2.3c9.1,0,18.2-3.8,24.7-10.8l212.3-230.5h508.3c18.5,0,33.6-15.1,33.6-33.6V54.6C989.9,36.1,974.8,21,956.3,21z M483.7,607.5H186v-83.9h297.8V607.5z M813.9,421.5H186v-83.9h627.9V421.5z M813.9,235.7H186v-83.9h627.9V235.7z"/></g>
</svg>